<?xml version="1.0" encoding="UTF-8" standalone="no"?><svg id="Livello_1" data-name="Livello 1" xmlns="http://www.w3.org/2000/svg" viewBox="0 0 421.8 90.04"><defs><style>.cls-1{fill:#737373;}.cls-2{fill:#ef7d00;}.cls-3{fill:#4569a1;}.cls-4{fill:#266aa6;}</style></defs><path class="cls-1" d="M402.1,2.37V37.14c0,7.3,3.66,11.48,10.7,11.48s10.7-4.18,10.7-11.48V2.37h-6.79V37.6c0,3.26-1.43,4.43-3.72,4.43s-3.71-1.17-3.71-4.43V2.37ZM385.6,8.9H398V2.37H378.43V48H398V41.51H385.6V28.14h9.85V21.62H385.6ZM366.3,48h6.91V41.12H366.3Z" transform="translate(-1.7 -1.75)"/><path class="cls-2" d="M349.47,8.9h12.39V2.37H342.29V48h19.57V41.51H349.47V28.14h9.85V21.62h-9.85ZM327.62,29.12h3.26v8.41c0,3.26-1.43,4.44-3.72,4.44s-3.71-1.18-3.71-4.44V12.88c0-3.27,1.43-4.5,3.71-4.5s3.72,1.23,3.72,4.5v4.89h6.78V13.33C337.66,6,334,1.85,327,1.85S316.27,6,316.27,13.33V37.07c0,7.31,3.65,11.48,10.7,11.48s10.69-4.17,10.69-11.48V22.59h-10ZM301.47,8.9c2.28,0,3.65,1.17,3.65,4.43V37.07c0,3.26-1.37,4.44-3.65,4.44h-4.05V8.9ZM290.25,48H301.6c7.17,0,10.69-4,10.69-11.28V13.66c0-7.31-3.52-11.29-10.69-11.29H290.25ZM274,10.46l3.45,23.09h-6.91Zm5.61-8.09H269.11L261.81,48h6.59l1.24-8.28h8.8L279.68,48h7.24ZM247.85,8.9c2.55,0,3.66,1.43,3.66,4.69v2.55c0,3.65-1.64,4.82-4.31,4.82h-2.8V8.9Zm-.26,18.59c3.26,0,4.63,1.3,4.63,5.54v4c0,3.39-1.3,4.5-3.71,4.5H244.4v-14Zm.46-25.12H237.22V48h11.29c7.17,0,10.89-3.78,10.89-10.83V33.49c0-4.83-1.5-8.29-5.35-9.79,3.19-1.5,4.63-4.5,4.63-9.19V12.88c0-7-3.2-10.51-10.63-10.51" transform="translate(-1.7 -1.75)"/><rect class="cls-1" x="217.58" y="20.19" width="13.04" height="6.52"/><path class="cls-3" d="M207.09,48h7.37V2.37h-6.39V29.7L200.7,2.37h-9V48h6.45V15ZM174.93,8.9h12.4V2.37H167.76V48h19.57V41.51h-12.4V28.14h9.85V21.62h-9.85Zm-21.19,0c2.28,0,3.52,1,3.52,4.3v6.85c0,3.26-1.24,4.3-3.52,4.3h-3.39V8.9Zm0-6.53H143.17V48h7.18V30.88h3.39c7.17,0,10.69-4,10.69-11.29V13.66c0-7.31-3.52-11.29-10.69-11.29m-37,34.7c0,7.31,3.84,11.48,10.89,11.48s10.89-4.17,10.89-11.48V13.33c0-7.3-3.85-11.48-10.89-11.48S116.76,6,116.76,13.33Zm7.17-24.19c0-3.27,1.44-4.5,3.72-4.5s3.72,1.23,3.72,4.5V37.53c0,3.26-1.44,4.5-3.72,4.5s-3.72-1.24-3.72-4.5Z" transform="translate(-1.7 -1.75)"/><path class="cls-1" d="M259.46,80.78a3.25,3.25,0,0,1,.37,1.67v.19H256.6a4.25,4.25,0,0,1,.55-1.82,1.35,1.35,0,0,1,1.18-.68,1.2,1.2,0,0,1,1.13.64m.73,7.18a3.63,3.63,0,0,0,1.2-.79l-.56-1.06a3.1,3.1,0,0,1-1,.65,3.15,3.15,0,0,1-1.24.23,1.66,1.66,0,0,1-1.54-.87,4.54,4.54,0,0,1-.5-2.27h4.94v-1a4.88,4.88,0,0,0-.81-3,2.75,2.75,0,0,0-2.37-1.11,3,3,0,0,0-2.51,1.29,5.33,5.33,0,0,0-1,3.29v.39a5.19,5.19,0,0,0,1,3.25,3.19,3.19,0,0,0,2.67,1.24,4.19,4.19,0,0,0,1.7-.32m-7.08-13h-1.72V88.11h1.72ZM244.8,86.59a1.58,1.58,0,0,1-.3-1,1.75,1.75,0,0,1,.44-1.21,1.59,1.59,0,0,1,1.24-.5h1.42v1.62a2,2,0,0,1-.7,1.05,1.93,1.93,0,0,1-1.24.43,1,1,0,0,1-.86-.38m4.8,1.52a7.11,7.11,0,0,1-.28-2V81.89a3,3,0,0,0-.84-2.27,3.07,3.07,0,0,0-2.2-.8,3.24,3.24,0,0,0-2.29.81,2.34,2.34,0,0,0-.83,1.87l0,0h1.64a1.49,1.49,0,0,1,.36-1,1.29,1.29,0,0,1,1-.41,1.27,1.27,0,0,1,1.06.47,2,2,0,0,1,.37,1.3v.94h-1.39a3.93,3.93,0,0,0-2.53.74,2.48,2.48,0,0,0-.9,2,2.82,2.82,0,0,0,.65,2,2.39,2.39,0,0,0,1.87.72,2.19,2.19,0,0,0,1.36-.44,3.3,3.3,0,0,0,1-1.11,4.86,4.86,0,0,0,.08.64c0,.22.1.46.18.74ZM238.44,76.72V79h-1.21v1.22h1.21v5.43a3,3,0,0,0,.55,2,1.91,1.91,0,0,0,1.53.63,2.56,2.56,0,0,0,.62-.07,2.63,2.63,0,0,0,.54-.19l-.18-1.18-.29.08a1.14,1.14,0,0,1-.27,0,.65.65,0,0,1-.57-.29,1.83,1.83,0,0,1-.21-1V80.21h1.42V79h-1.42V76.72ZM235.87,75h-1.72V76.6h1.72Zm0,4h-1.72v9.12h1.72ZM227,83.66a6.26,6.26,0,0,1,.43-2.53,1.42,1.42,0,0,1,1.34-1,1.5,1.5,0,0,1,1,.32,2.38,2.38,0,0,1,.65.88v4.48a2.15,2.15,0,0,1-.65.84,1.62,1.62,0,0,1-1,.29,1.4,1.4,0,0,1-1.34-.84,5.15,5.15,0,0,1-.42-2.28Zm-1.72.18a5.83,5.83,0,0,0,.8,3.23,2.53,2.53,0,0,0,2.24,1.21,2.48,2.48,0,0,0,1.18-.27,2.38,2.38,0,0,0,.88-.8v.91a2.68,2.68,0,0,1-.46,1.72,1.69,1.69,0,0,1-1.41.57,4.3,4.3,0,0,1-1.14-.15,4.2,4.2,0,0,1-1-.41l-.28,1.28a5.1,5.1,0,0,0,1.19.48,4.76,4.76,0,0,0,1.24.18,3.51,3.51,0,0,0,2.64-1,3.72,3.72,0,0,0,.94-2.71V79h-1.44l-.16,1.15a2.78,2.78,0,0,0-.91-1,2.36,2.36,0,0,0-1.25-.34,2.5,2.5,0,0,0-2.26,1.33,6.76,6.76,0,0,0-.8,3.51ZM223.46,75h-1.72V76.6h1.72Zm0,4h-1.72v9.12h1.72Zm-8.94,4.67a6.26,6.26,0,0,1,.43-2.53,1.45,1.45,0,0,1,2.31-.64,2.31,2.31,0,0,1,.65.89V85.8a2.07,2.07,0,0,1-.65.86,1.58,1.58,0,0,1-1,.3,1.4,1.4,0,0,1-1.34-.85,5,5,0,0,1-.43-2.27Zm-1.7.18a5.83,5.83,0,0,0,.79,3.23,2.53,2.53,0,0,0,2.24,1.21A2.35,2.35,0,0,0,217.1,88,2.65,2.65,0,0,0,218,87l.18,1.1h1.41V75h-1.71v5a2.7,2.7,0,0,0-.88-.84,2.35,2.35,0,0,0-1.16-.29,2.48,2.48,0,0,0-2.25,1.33,6.66,6.66,0,0,0-.8,3.51Zm-7.07-3.06a3.25,3.25,0,0,1,.37,1.67v.19h-3.23a4.12,4.12,0,0,1,.55-1.82,1.34,1.34,0,0,1,1.18-.68,1.2,1.2,0,0,1,1.13.64m.73,7.18a3.63,3.63,0,0,0,1.2-.79l-.56-1.06a3.1,3.1,0,0,1-1,.65,3.15,3.15,0,0,1-1.24.23,1.66,1.66,0,0,1-1.54-.87,4.44,4.44,0,0,1-.5-2.27h4.94v-1a4.88,4.88,0,0,0-.81-3,2.75,2.75,0,0,0-2.37-1.11,3,3,0,0,0-2.51,1.29,5.33,5.33,0,0,0-1,3.29v.39a5.19,5.19,0,0,0,1,3.25,3.19,3.19,0,0,0,2.67,1.24,4.19,4.19,0,0,0,1.7-.32M193,79v9.12h1.71v-6.8a2.23,2.23,0,0,1,.68-.85,1.71,1.71,0,0,1,1-.31,1.23,1.23,0,0,1,1.08.53,3.43,3.43,0,0,1,.36,1.82v5.61h1.71V82.5a4.6,4.6,0,0,0-.68-2.78,2.23,2.23,0,0,0-1.89-.9,2.38,2.38,0,0,0-1.34.4,3.12,3.12,0,0,0-1,1.13l-.1-1.36Zm-7.11,4.46a5.29,5.29,0,0,1,.47-2.37,1.49,1.49,0,0,1,1.41-.94,1.52,1.52,0,0,1,1.42.94,5.29,5.29,0,0,1,.47,2.37v.23a5.33,5.33,0,0,1-.47,2.38,1.5,1.5,0,0,1-1.4.93,1.52,1.52,0,0,1-1.43-.93,5.3,5.3,0,0,1-.47-2.38Zm-1.72.23a5.4,5.4,0,0,0,1,3.32,3.37,3.37,0,0,0,5.29,0,5.4,5.4,0,0,0,1-3.32v-.23a5.39,5.39,0,0,0-1-3.33,3.33,3.33,0,0,0-5.28,0,5.45,5.45,0,0,0-1,3.33ZM182.41,75h-1.72V76.6h1.72Zm0,4h-1.72v9.12h1.72Zm-3.59,1.06V79h-6.07v1.32h4.11L172.65,87v1.08H179v-1.3h-4.44Zm-12.33,6.54a1.58,1.58,0,0,1-.3-1,1.76,1.76,0,0,1,.45-1.21,1.59,1.59,0,0,1,1.24-.5h1.42v1.62a2,2,0,0,1-.71,1.05,1.91,1.91,0,0,1-1.24.43,1.06,1.06,0,0,1-.86-.38m4.81,1.52a5.52,5.52,0,0,1-.21-1,6.58,6.58,0,0,1-.07-1V81.89a3,3,0,0,0-.84-2.27,3.1,3.1,0,0,0-2.2-.8,3.22,3.22,0,0,0-2.29.81,2.31,2.31,0,0,0-.83,1.87l0,0h1.63a1.45,1.45,0,0,1,.37-1,1.26,1.26,0,0,1,1-.41,1.28,1.28,0,0,1,1.06.47,2,2,0,0,1,.37,1.3v.94h-1.4a3.88,3.88,0,0,0-2.52.74,2.46,2.46,0,0,0-.91,2,2.82,2.82,0,0,0,.66,2,2.39,2.39,0,0,0,1.87.72,2.14,2.14,0,0,0,1.35-.44,3.22,3.22,0,0,0,1-1.11,4.86,4.86,0,0,0,.08.64c0,.22.1.46.17.74Zm-12.51-2a5.68,5.68,0,0,1-.42-2.35V83.4a5.53,5.53,0,0,1,.43-2.34,1.43,1.43,0,0,1,1.38-.92,1.26,1.26,0,0,1,1.08.57,2.46,2.46,0,0,1,.41,1.47h1.55v0a3.26,3.26,0,0,0-.83-2.39,2.88,2.88,0,0,0-2.22-.93,3,3,0,0,0-2.6,1.3,5.53,5.53,0,0,0-.92,3.28v.32a5.53,5.53,0,0,0,.92,3.28,3.22,3.22,0,0,0,4.78.4,2.82,2.82,0,0,0,.87-2.17l0,0h-1.54a1.93,1.93,0,0,1-.43,1.32,1.35,1.35,0,0,1-1.06.49,1.44,1.44,0,0,1-1.39-.92M154.93,79h-1.72v9.12h1.72Zm-4.48,9.12v-7.9H152V79h-1.59v-.93a2.16,2.16,0,0,1,.38-1.38,1.44,1.44,0,0,1,1.17-.47,4.26,4.26,0,0,1,1,.11,7,7,0,0,1,.88.3l.26-1.33a9,9,0,0,0-1.16-.37,4.35,4.35,0,0,0-1.07-.13,3.1,3.1,0,0,0-2.32.85,3.35,3.35,0,0,0-.83,2.42V79h-1.2v1.22h1.2v7.9ZM146.19,75h-1.72V76.6h1.72Zm0,4h-1.72v9.12h1.72Zm-6.52-2.27V79h-1.21v1.22h1.21v5.43a3,3,0,0,0,.55,2,1.91,1.91,0,0,0,1.53.63,2.56,2.56,0,0,0,.62-.07,2.63,2.63,0,0,0,.54-.19l-.17-1.18-.3.08a1.14,1.14,0,0,1-.27,0,.68.68,0,0,1-.57-.29,1.83,1.83,0,0,1-.21-1V80.21h1.42V79h-1.42V76.72Zm-1.83,2.2-.25-.07a1.39,1.39,0,0,0-.3,0,1.64,1.64,0,0,0-1.08.4,2.87,2.87,0,0,0-.78,1.12L135.31,79h-1.57v9.12h1.72v-6.5a2,2,0,0,1,.55-.91,1.28,1.28,0,0,1,.9-.33l.74,0Zm-7.7,1.86a3.25,3.25,0,0,1,.37,1.67v.19h-3.23a4.25,4.25,0,0,1,.55-1.82,1.35,1.35,0,0,1,1.18-.68,1.2,1.2,0,0,1,1.13.64m.73,7.18a3.44,3.44,0,0,0,1.2-.79l-.56-1.06a3.06,3.06,0,0,1-1,.65,3.2,3.2,0,0,1-1.25.23,1.67,1.67,0,0,1-1.54-.87,4.54,4.54,0,0,1-.5-2.27h4.95v-1a4.88,4.88,0,0,0-.82-3A2.75,2.75,0,0,0,129,78.82a3,3,0,0,0-2.51,1.29,5.33,5.33,0,0,0-1,3.29v.39a5.19,5.19,0,0,0,1,3.25,3.2,3.2,0,0,0,2.67,1.24,4.16,4.16,0,0,0,1.7-.32m-11-1.89a5.68,5.68,0,0,1-.42-2.35V83.4a5.69,5.69,0,0,1,.43-2.34,1.43,1.43,0,0,1,1.38-.92,1.26,1.26,0,0,1,1.08.57,2.46,2.46,0,0,1,.41,1.47h1.55v0a3.26,3.26,0,0,0-.83-2.39,2.88,2.88,0,0,0-2.22-.93,3,3,0,0,0-2.6,1.3,5.53,5.53,0,0,0-.92,3.28v.32a5.53,5.53,0,0,0,.92,3.28,3.22,3.22,0,0,0,4.78.4,2.82,2.82,0,0,0,.87-2.17l0,0h-1.54a1.93,1.93,0,0,1-.43,1.32,1.35,1.35,0,0,1-1.06.49,1.45,1.45,0,0,1-1.39-.92" transform="translate(-1.7 -1.75)"/><polygon class="cls-4" points="74.93 86.26 17.69 86.26 0 31.81 43.79 0 85.1 0.04 85.09 15.6 48.84 15.57 18.3 37.76 29 70.69 63.63 70.69 76.07 32.38 90.88 37.19 74.93 86.26"/><polygon class="cls-2" points="46.31 26 26.19 40.62 33.88 64.27 58.75 64.27 66.43 40.62 46.31 26"/></svg>