<?xml version="1.0" encoding="UTF-8" standalone="no"?><svg width="393" height="61" viewBox="0 0 393 61" fill="none" xmlns="http://www.w3.org/2000/svg">
<path d="M95.9604 35.6632C92.8305 35.6632 89.9864 34.971 87.4282 33.5866C84.9002 32.1721 82.9139 30.2459 81.4692 27.8082C80.0547 25.3704 79.3475 22.6317 79.3475 19.592C79.3475 16.5523 80.0547 13.8135 81.4692 11.3758C82.9139 8.938 84.9002 7.02691 87.4282 5.64249C89.9864 4.22798 92.8305 3.52073 95.9604 3.52073C99.0904 3.52073 101.904 4.21294 104.402 5.59735C106.93 6.98176 108.917 8.9079 110.361 11.3758C111.806 13.8135 112.528 16.5523 112.528 19.592C112.528 22.6317 111.806 25.3854 110.361 27.8533C108.917 30.2911 106.93 32.2022 104.402 33.5866C101.904 34.971 99.0904 35.6632 95.9604 35.6632ZM95.9604 32.6837C98.4584 32.6837 100.716 32.1269 102.732 31.0134C104.748 29.8697 106.328 28.3047 107.472 26.3184C108.616 24.302 109.188 22.0598 109.188 19.592C109.188 17.1241 108.616 14.897 107.472 12.9107C106.328 10.8942 104.748 9.32925 102.732 8.2157C100.716 7.07205 98.4584 6.50023 95.9604 6.50023C93.4625 6.50023 91.1902 7.07205 89.1437 8.2157C87.1273 9.32925 85.5322 10.8942 84.3585 12.9107C83.2148 14.897 82.643 17.1241 82.643 19.592C82.643 22.0598 83.2148 24.302 84.3585 26.3184C85.5322 28.3047 87.1273 29.8697 89.1437 31.0134C91.1902 32.1269 93.4625 32.6837 95.9604 32.6837ZM131.573 11.4661C133.8 11.4661 135.817 11.9777 137.622 13.001C139.428 13.9941 140.843 15.4086 141.866 17.2445C142.889 19.0803 143.401 21.172 143.401 23.5195C143.401 25.8971 142.889 28.0038 141.866 29.8396C140.843 31.6755 139.428 33.105 137.622 34.1283C135.847 35.1215 133.83 35.6181 131.573 35.6181C129.647 35.6181 127.901 35.2268 126.336 34.4443C124.801 33.6317 123.537 32.458 122.544 30.9231V44.1503H119.339V11.6466H122.409V16.3416C123.372 14.7766 124.636 13.5728 126.201 12.7301C127.796 11.8874 129.587 11.4661 131.573 11.4661ZM131.347 32.774C133.003 32.774 134.507 32.3978 135.862 31.6454C137.216 30.8629 138.269 29.7644 139.022 28.3499C139.804 26.9354 140.195 25.3252 140.195 23.5195C140.195 21.7137 139.804 20.1186 139.022 18.7342C138.269 17.3197 137.216 16.2212 135.862 15.4387C134.507 14.6562 133.003 14.265 131.347 14.265C129.662 14.265 128.142 14.6562 126.788 15.4387C125.464 16.2212 124.41 17.3197 123.628 18.7342C122.875 20.1186 122.499 21.7137 122.499 23.5195C122.499 25.3252 122.875 26.9354 123.628 28.3499C124.41 29.7644 125.464 30.8629 126.788 31.6454C128.142 32.3978 129.662 32.774 131.347 32.774ZM170.61 24.5127H150.747C150.928 26.9805 151.876 28.9819 153.591 30.5168C155.307 32.0216 157.474 32.774 160.092 32.774C161.567 32.774 162.921 32.5182 164.155 32.0065C165.389 31.4648 166.457 30.6823 167.36 29.6591L169.166 31.7357C168.113 32.9997 166.788 33.9628 165.193 34.6249C163.628 35.287 161.898 35.6181 160.002 35.6181C157.564 35.6181 155.397 35.1064 153.501 34.0832C151.635 33.0298 150.175 31.5852 149.122 29.7493C148.069 27.9135 147.542 25.8369 147.542 23.5195C147.542 21.2021 148.039 19.1255 149.032 17.2896C150.055 15.4538 151.439 14.0242 153.185 13.001C154.961 11.9777 156.947 11.4661 159.144 11.4661C161.341 11.4661 163.312 11.9777 165.058 13.001C166.803 14.0242 168.173 15.4538 169.166 17.2896C170.159 19.0954 170.656 21.172 170.656 23.5195L170.61 24.5127ZM159.144 14.2198C156.857 14.2198 154.931 14.9572 153.366 16.4319C151.831 17.8765 150.958 19.7725 150.747 22.12H167.586C167.375 19.7725 166.487 17.8765 164.922 16.4319C163.387 14.9572 161.461 14.2198 159.144 14.2198ZM189.278 11.4661C192.258 11.4661 194.62 12.3388 196.366 14.0844C198.141 15.7999 199.029 18.3129 199.029 21.6234V35.3923H195.824V21.9394C195.824 19.4716 195.207 17.5906 193.973 16.2965C192.739 15.0023 190.979 14.3553 188.691 14.3553C186.133 14.3553 184.102 15.1227 182.597 16.6576C181.122 18.1624 180.385 20.2541 180.385 22.9326V35.3923H177.18V11.6466H180.249V16.0256C181.122 14.581 182.326 13.4674 183.861 12.6849C185.426 11.8724 187.232 11.4661 189.278 11.4661ZM360.154 35.5695C359.549 35.5695 359.04 35.3628 358.626 34.9495C358.213 34.5363 358.007 34.0197 358.007 33.3997C358.007 32.7651 358.213 32.2558 358.626 31.8721C359.04 31.4736 359.549 31.2743 360.154 31.2743C360.759 31.2743 361.268 31.4736 361.682 31.8721C362.095 32.2558 362.302 32.7651 362.302 33.3997C362.302 34.0197 362.095 34.5363 361.682 34.9495C361.268 35.3628 360.759 35.5695 360.154 35.5695ZM376.159 29.481C376.159 29.5252 376.137 29.8352 376.092 30.4108H367.081C367.244 31.1488 367.627 31.7319 368.233 32.1599C368.838 32.5879 369.591 32.802 370.491 32.802C371.111 32.802 371.657 32.7134 372.129 32.5363C372.616 32.3444 373.067 32.0492 373.48 31.6507L375.317 33.6433C374.196 34.9274 372.557 35.5695 370.402 35.5695C369.059 35.5695 367.871 35.3112 366.838 34.7946C365.805 34.2632 365.008 33.5326 364.447 32.6027C363.886 31.6728 363.605 30.6175 363.605 29.4367C363.605 28.2706 363.878 27.2227 364.425 26.2928C364.985 25.3482 365.746 24.6175 366.705 24.1009C367.679 23.5696 368.764 23.3039 369.96 23.3039C371.126 23.3039 372.181 23.5548 373.126 24.0567C374.07 24.5585 374.808 25.2817 375.34 26.2264C375.886 27.1563 376.159 28.2411 376.159 29.481ZM369.982 25.9164C369.199 25.9164 368.543 26.1378 368.011 26.5806C367.48 27.0234 367.155 27.6286 367.037 28.3961H372.904C372.786 27.6433 372.461 27.0456 371.93 26.6028C371.399 26.1452 370.749 25.9164 369.982 25.9164ZM390.458 23.481V35.3923H387.181V33.9754C386.724 34.492 386.178 34.8905 385.543 35.1709C384.908 35.4366 384.222 35.5695 383.484 35.5695C381.919 35.5695 380.68 35.1193 379.764 34.2189C378.849 33.3186 378.392 31.9828 378.392 30.2116V23.481H381.846V29.7024C381.846 31.6212 382.65 32.5806 384.259 32.5806C385.085 32.5806 385.75 32.3149 386.251 31.7835C386.753 31.2374 387.004 30.433 387.004 29.3703V23.481H390.458Z" fill="#1F496E"/>
<path d="M230.213 18.9599C232.019 19.5318 233.433 20.4948 234.456 21.8492C235.48 23.1734 235.991 24.8136 235.991 26.7698C235.991 29.5387 234.908 31.6755 232.741 33.1803C230.604 34.655 227.474 35.3923 223.351 35.3923H207.009V3.79159H222.448C226.3 3.79159 229.25 4.52894 231.296 6.00365C233.373 7.47835 234.411 9.47973 234.411 12.0078C234.411 13.5427 234.035 14.912 233.283 16.1159C232.56 17.3197 231.537 18.2677 230.213 18.9599ZM214.277 9.29915V16.7479H221.545C223.351 16.7479 224.72 16.4319 225.653 15.7999C226.586 15.1679 227.053 14.2349 227.053 13.001C227.053 11.767 226.586 10.8491 225.653 10.2472C224.72 9.61516 223.351 9.29915 221.545 9.29915H214.277ZM222.809 29.8848C224.735 29.8848 226.18 29.5688 227.143 28.9368C228.136 28.3047 228.633 27.3266 228.633 26.0024C228.633 23.3841 226.692 22.0749 222.809 22.0749H214.277V29.8848H222.809ZM250.828 10.7438C254.59 10.7438 257.479 11.6466 259.495 13.4524C261.512 15.2281 262.52 17.9216 262.52 21.5332V35.3923H255.929V32.3677C254.605 34.6249 252.137 35.7535 248.525 35.7535C246.659 35.7535 245.034 35.4375 243.65 34.8055C242.295 34.1734 241.257 33.3007 240.535 32.1871C239.813 31.0736 239.451 29.8095 239.451 28.395C239.451 26.1378 240.294 24.3622 241.979 23.068C243.695 21.7739 246.328 21.1269 249.88 21.1269H255.478C255.478 19.592 255.011 18.4182 254.078 17.6056C253.145 16.7629 251.746 16.3416 249.88 16.3416C248.586 16.3416 247.306 16.5523 246.042 16.9736C244.809 17.3649 243.755 17.9066 242.882 18.5988L240.354 13.6781C241.679 12.7451 243.259 12.0228 245.094 11.5112C246.96 10.9996 248.871 10.7438 250.828 10.7438ZM250.286 31.0134C251.49 31.0134 252.558 30.7425 253.491 30.2008C254.424 29.629 255.086 28.8013 255.478 27.7179V25.235H250.647C247.758 25.235 246.313 26.183 246.313 28.079C246.313 28.9819 246.659 29.7042 247.352 30.2459C248.074 30.7576 249.052 31.0134 250.286 31.0134ZM293.897 1.89555V35.3923H287.171V32.5934C285.425 34.7001 282.897 35.7535 279.586 35.7535C277.299 35.7535 275.223 35.2419 273.357 34.2186C271.521 33.1953 270.076 31.7357 269.023 29.8396C267.969 27.9436 267.443 25.7466 267.443 23.2486C267.443 20.7507 267.969 18.5537 269.023 16.6576C270.076 14.7616 271.521 13.3019 273.357 12.2786C275.223 11.2554 277.299 10.7438 279.586 10.7438C282.686 10.7438 285.109 11.7219 286.855 13.6781V1.89555H293.897ZM280.805 29.9751C282.581 29.9751 284.056 29.3731 285.229 28.1693C286.403 26.9354 286.99 25.2951 286.99 23.2486C286.99 21.2021 286.403 19.5769 285.229 18.3731C284.056 17.1391 282.581 16.5222 280.805 16.5222C279 16.5222 277.51 17.1391 276.336 18.3731C275.162 19.5769 274.576 21.2021 274.576 23.2486C274.576 25.2951 275.162 26.9354 276.336 28.1693C277.51 29.3731 279 29.9751 280.805 29.9751ZM325.47 11.1049V31.3294C325.47 35.7836 324.311 39.0941 321.994 41.261C319.677 43.428 316.291 44.5114 311.837 44.5114C309.489 44.5114 307.262 44.2255 305.155 43.6537C303.049 43.0818 301.303 42.2542 299.919 41.1708L302.717 36.1146C303.741 36.9573 305.035 37.6194 306.6 38.101C308.165 38.6126 309.73 38.8684 311.295 38.8684C313.733 38.8684 315.523 38.3116 316.667 37.1981C317.841 36.1146 318.428 34.4594 318.428 32.2323V31.1939C316.592 33.2104 314.034 34.2186 310.753 34.2186C308.526 34.2186 306.479 33.7371 304.613 32.774C302.778 31.7808 301.318 30.3964 300.235 28.6207C299.151 26.8451 298.609 24.7986 298.609 22.4812C298.609 20.1638 299.151 18.1173 300.235 16.3416C301.318 14.5659 302.778 13.1966 304.613 12.2335C306.479 11.2403 308.526 10.7438 310.753 10.7438C314.274 10.7438 316.953 11.9025 318.789 14.2198V11.1049H325.47ZM312.153 28.4402C314.018 28.4402 315.538 27.8984 316.712 26.815C317.916 25.7014 318.518 24.2568 318.518 22.4812C318.518 20.7055 317.916 19.276 316.712 18.1925C315.538 17.079 314.018 16.5222 312.153 16.5222C310.287 16.5222 308.752 17.079 307.548 18.1925C306.344 19.276 305.742 20.7055 305.742 22.4812C305.742 24.2568 306.344 25.7014 307.548 26.815C308.752 27.8984 310.287 28.4402 312.153 28.4402ZM355.816 23.3389C355.816 23.4292 355.77 24.0612 355.68 25.235H337.307C337.638 26.7398 338.42 27.9285 339.654 28.8013C340.888 29.6741 342.423 30.1105 344.259 30.1105C345.523 30.1105 346.636 29.9299 347.599 29.5688C348.592 29.1775 349.51 28.5756 350.353 27.763L354.1 31.826C351.813 34.4443 348.472 35.7535 344.078 35.7535C341.339 35.7535 338.917 35.2268 336.81 34.1734C334.703 33.09 333.078 31.6002 331.934 29.7042C330.791 27.8082 330.219 25.6563 330.219 23.2486C330.219 20.871 330.776 18.7342 331.889 16.8382C333.033 14.912 334.583 13.4223 336.539 12.3689C338.525 11.2855 340.737 10.7438 343.175 10.7438C345.553 10.7438 347.705 11.2554 349.631 12.2786C351.557 13.3019 353.062 14.7766 354.145 16.7028C355.259 18.5988 355.816 20.8108 355.816 23.3389ZM343.22 16.0707C341.625 16.0707 340.286 16.5222 339.203 17.4251C338.119 18.3279 337.457 19.5619 337.216 21.1269H349.179C348.939 19.592 348.276 18.3731 347.193 17.4702C346.11 16.5372 344.785 16.0707 343.22 16.0707Z" fill="#64BF96"/>
<path d="M52.5853 57.8862H15.0974L3.51172 22.2255L32.1909 1.39233L59.2459 1.41853L59.2393 11.6092L35.4983 11.5895L15.4969 26.1223L22.5046 47.689H45.1846L53.3319 22.5988L63.0314 25.749L52.5853 57.8862Z" fill="#1F496E"/>
<path d="M33.8431 18.4204L20.666 27.9954L25.7024 43.4844H41.9904L47.0202 27.9954L33.8431 18.4204Z" fill="#64BF96"/>
<path d="M82.3694 49.6161H83.5509V56.8584H88.0285V57.8862H82.3694V49.6161ZM94.6881 55.8187H90.2931L89.3834 57.8862H88.1665L91.9117 49.6161H93.0813L96.8383 57.8862H95.5978L94.6881 55.8187ZM94.2746 54.8735L92.4906 50.8212L90.7066 54.8735H94.2746ZM104.47 49.6161C105.541 49.6161 106.384 49.8721 106.998 50.3841C107.613 50.896 107.92 51.6009 107.92 52.4988C107.92 53.3967 107.613 54.1017 106.998 54.6136C106.384 55.1256 105.541 55.3816 104.47 55.3816H102.426V57.8862H101.245V49.6161H104.47ZM104.435 54.3537C105.183 54.3537 105.754 54.1962 106.148 53.8811C106.542 53.5582 106.739 53.0974 106.739 52.4988C106.739 51.9002 106.542 51.4434 106.148 51.1284C105.754 50.8054 105.183 50.644 104.435 50.644H102.426V54.3537H104.435ZM109.656 49.6161H110.837V57.8862H109.656V49.6161ZM118.582 55.8187H114.187L113.278 57.8862H112.061L115.806 49.6161H116.976L120.733 57.8862H119.492L118.582 55.8187ZM118.169 54.8735L116.385 50.8212L114.601 54.8735H118.169ZM123.193 50.644H120.358V49.6161H127.198V50.644H124.363V57.8862H123.193V50.644ZM130.243 50.644H127.407V49.6161H134.248V50.644H131.412V57.8862H130.243V50.644ZM140.388 55.8187H135.993L135.084 57.8862H133.867L137.612 49.6161H138.782L142.539 57.8862H141.298L140.388 55.8187ZM139.975 54.8735L138.191 50.8212L136.407 54.8735H139.975ZM144.954 50.644V53.5267H149.101V54.5427H144.954V57.8862H143.772V49.6161H149.609V50.644H144.954ZM154.913 57.9807C154.078 57.9807 153.326 57.7996 152.656 57.4373C151.987 57.0671 151.459 56.5591 151.073 55.9132C150.695 55.2674 150.506 54.5467 150.506 53.7512C150.506 52.9557 150.695 52.235 151.073 51.5891C151.459 50.9433 151.987 50.4392 152.656 50.0769C153.326 49.7067 154.078 49.5216 154.913 49.5216C155.74 49.5216 156.488 49.7067 157.157 50.0769C157.827 50.4392 158.351 50.9433 158.729 51.5891C159.107 52.2271 159.296 52.9478 159.296 53.7512C159.296 54.5546 159.107 55.2792 158.729 55.925C158.351 56.563 157.827 57.0671 157.157 57.4373C156.488 57.7996 155.74 57.9807 154.913 57.9807ZM154.913 56.9293C155.519 56.9293 156.063 56.7914 156.543 56.5158C157.031 56.2401 157.413 55.862 157.689 55.3816C157.973 54.8932 158.114 54.3498 158.114 53.7512C158.114 53.1526 157.973 52.6131 157.689 52.1326C157.413 51.6443 157.031 51.2623 156.543 50.9866C156.063 50.7109 155.519 50.5731 154.913 50.5731C154.306 50.5731 153.755 50.7109 153.259 50.9866C152.77 51.2623 152.384 51.6443 152.101 52.1326C151.825 52.6131 151.687 53.1526 151.687 53.7512C151.687 54.3498 151.825 54.8932 152.101 55.3816C152.384 55.862 152.77 56.2401 153.259 56.5158C153.755 56.7914 154.306 56.9293 154.913 56.9293ZM166.631 57.8862L164.847 55.3461C164.626 55.3619 164.453 55.3698 164.327 55.3698H162.283V57.8862H161.102V49.6161H164.327C165.398 49.6161 166.241 49.8721 166.855 50.3841C167.47 50.896 167.777 51.6009 167.777 52.4988C167.777 53.1368 167.619 53.6803 167.304 54.1292C166.989 54.5782 166.54 54.9051 165.957 55.1098L167.919 57.8862H166.631ZM164.291 54.3655C165.04 54.3655 165.611 54.2041 166.005 53.8811C166.398 53.5582 166.595 53.0974 166.595 52.4988C166.595 51.9002 166.398 51.4434 166.005 51.1284C165.611 50.8054 165.04 50.644 164.291 50.644H162.283V54.3655H164.291ZM177.353 57.8862L177.341 51.8609L174.352 56.882H173.809L170.82 51.8963V57.8862H169.686V49.6161H170.654L174.104 55.4288L177.507 49.6161H178.475L178.487 57.8862H177.353ZM186.238 55.8187H181.844L180.934 57.8862H179.717L183.462 49.6161H184.632L188.389 57.8862H187.148L186.238 55.8187ZM185.825 54.8735L184.041 50.8212L182.257 54.8735H185.825ZM196.021 49.6161C197.092 49.6161 197.935 49.8721 198.549 50.3841C199.163 50.896 199.47 51.6009 199.47 52.4988C199.47 53.3967 199.163 54.1017 198.549 54.6136C197.935 55.1256 197.092 55.3816 196.021 55.3816H193.977V57.8862H192.795V49.6161H196.021ZM195.985 54.3537C196.733 54.3537 197.304 54.1962 197.698 53.8811C198.092 53.5582 198.289 53.0974 198.289 52.4988C198.289 51.9002 198.092 51.4434 197.698 51.1284C197.304 50.8054 196.733 50.644 195.985 50.644H193.977V54.3537H195.985ZM207.208 56.8584V57.8862H201.206V49.6161H207.042V50.644H202.388V53.1841H206.534V54.1883H202.388V56.8584H207.208ZM214.65 57.8862L212.866 55.3461C212.645 55.3619 212.472 55.3698 212.346 55.3698H210.302V57.8862H209.121V49.6161H212.346C213.417 49.6161 214.26 49.8721 214.874 50.3841C215.489 50.896 215.796 51.6009 215.796 52.4988C215.796 53.1368 215.638 53.6803 215.323 54.1292C215.008 54.5782 214.559 54.9051 213.977 55.1098L215.938 57.8862H214.65ZM212.311 54.3655C213.059 54.3655 213.63 54.2041 214.024 53.8811C214.418 53.5582 214.615 53.0974 214.615 52.4988C214.615 51.9002 214.418 51.4434 214.024 51.1284C213.63 50.8054 213.059 50.644 212.311 50.644H210.302V54.3655H212.311ZM220.878 49.6161H222.059V56.8584H226.537V57.8862H220.878V49.6161ZM233.894 56.8584V57.8862H227.892V49.6161H233.729V50.644H229.074V53.1841H233.221V54.1883H229.074V56.8584H233.894ZM242.678 57.9807C241.851 57.9807 241.103 57.7996 240.433 57.4373C239.772 57.0671 239.252 56.563 238.874 55.925C238.496 55.2792 238.307 54.5546 238.307 53.7512C238.307 52.9478 238.496 52.2271 238.874 51.5891C239.252 50.9433 239.775 50.4392 240.445 50.0769C241.114 49.7067 241.863 49.5216 242.69 49.5216C243.336 49.5216 243.926 49.6319 244.462 49.8524C244.997 50.0651 245.454 50.3841 245.832 50.8094L245.064 51.5537C244.442 50.9 243.666 50.5731 242.737 50.5731C242.123 50.5731 241.567 50.7109 241.071 50.9866C240.575 51.2623 240.185 51.6443 239.902 52.1326C239.626 52.6131 239.488 53.1526 239.488 53.7512C239.488 54.3498 239.626 54.8932 239.902 55.3816C240.185 55.862 240.575 56.2401 241.071 56.5158C241.567 56.7914 242.123 56.9293 242.737 56.9293C243.659 56.9293 244.434 56.5985 245.064 55.9368L245.832 56.6812C245.454 57.1065 244.994 57.4294 244.45 57.6499C243.914 57.8705 243.324 57.9807 242.678 57.9807ZM253.52 56.8584V57.8862H247.518V49.6161H253.354V50.644H248.699V53.1841H252.846V54.1883H248.699V56.8584H253.52ZM260.962 57.8862L259.178 55.3461C258.957 55.3619 258.784 55.3698 258.658 55.3698H256.614V57.8862H255.433V49.6161H258.658C259.729 49.6161 260.572 49.8721 261.186 50.3841C261.801 50.896 262.108 51.6009 262.108 52.4988C262.108 53.1368 261.95 53.6803 261.635 54.1292C261.32 54.5782 260.871 54.9051 260.288 55.1098L262.249 57.8862H260.962ZM258.622 54.3655C259.371 54.3655 259.942 54.2041 260.336 53.8811C260.729 53.5582 260.926 53.0974 260.926 52.4988C260.926 51.9002 260.729 51.4434 260.336 51.1284C259.942 50.8054 259.371 50.644 258.622 50.644H256.614V54.3655H258.622ZM265.543 50.644H262.708V49.6161H269.548V50.644H266.713V57.8862H265.543V50.644ZM270.835 49.6161H272.017V57.8862H270.835V49.6161ZM275.674 50.644V53.5267H279.821V54.5427H275.674V57.8862H274.493V49.6161H280.329V50.644H275.674ZM281.992 49.6161H283.173V57.8862H281.992V49.6161ZM289.347 57.9807C288.52 57.9807 287.772 57.7996 287.103 57.4373C286.441 57.0671 285.921 56.563 285.543 55.925C285.165 55.2792 284.976 54.5546 284.976 53.7512C284.976 52.9478 285.165 52.2271 285.543 51.5891C285.921 50.9433 286.445 50.4392 287.114 50.0769C287.784 49.7067 288.532 49.5216 289.359 49.5216C290.005 49.5216 290.596 49.6319 291.131 49.8524C291.667 50.0651 292.124 50.3841 292.502 50.8094L291.734 51.5537C291.112 50.9 290.336 50.5731 289.406 50.5731C288.792 50.5731 288.237 50.7109 287.74 50.9866C287.244 51.2623 286.854 51.6443 286.571 52.1326C286.295 52.6131 286.157 53.1526 286.157 53.7512C286.157 54.3498 286.295 54.8932 286.571 55.3816C286.854 55.862 287.244 56.2401 287.74 56.5158C288.237 56.7914 288.792 56.9293 289.406 56.9293C290.328 56.9293 291.104 56.5985 291.734 55.9368L292.502 56.6812C292.124 57.1065 291.663 57.4294 291.119 57.6499C290.584 57.8705 289.993 57.9807 289.347 57.9807ZM299.26 55.8187H294.865L293.956 57.8862H292.739L296.484 49.6161H297.653L301.41 57.8862H300.17L299.26 55.8187ZM298.847 54.8735L297.063 50.8212L295.279 54.8735H298.847ZM308.823 56.8584V57.8862H301.912V57.0828L307.11 50.644H301.994V49.6161H308.669V50.4195L303.495 56.8584H308.823ZM310.409 49.6161H311.59V57.8862H310.409V49.6161ZM317.8 57.9807C316.965 57.9807 316.213 57.7996 315.543 57.4373C314.874 57.0671 314.346 56.5591 313.96 55.9132C313.582 55.2674 313.393 54.5467 313.393 53.7512C313.393 52.9557 313.582 52.235 313.96 51.5891C314.346 50.9433 314.874 50.4392 315.543 50.0769C316.213 49.7067 316.965 49.5216 317.8 49.5216C318.627 49.5216 319.375 49.7067 320.044 50.0769C320.714 50.4392 321.238 50.9433 321.616 51.5891C321.994 52.2271 322.183 52.9478 322.183 53.7512C322.183 54.5546 321.994 55.2792 321.616 55.925C321.238 56.563 320.714 57.0671 320.044 57.4373C319.375 57.7996 318.627 57.9807 317.8 57.9807ZM317.8 56.9293C318.406 56.9293 318.95 56.7914 319.43 56.5158C319.918 56.2401 320.3 55.862 320.576 55.3816C320.86 54.8932 321.001 54.3498 321.001 53.7512C321.001 53.1526 320.86 52.6131 320.576 52.1326C320.3 51.6443 319.918 51.2623 319.43 50.9866C318.95 50.7109 318.406 50.5731 317.8 50.5731C317.193 50.5731 316.642 50.7109 316.146 50.9866C315.657 51.2623 315.271 51.6443 314.988 52.1326C314.712 52.6131 314.574 53.1526 314.574 53.7512C314.574 54.3498 314.712 54.8932 314.988 55.3816C315.271 55.862 315.657 56.2401 316.146 56.5158C316.642 56.7914 317.193 56.9293 317.8 56.9293ZM331.101 49.6161V57.8862H330.132L325.17 51.7191V57.8862H323.989V49.6161H324.957L329.919 55.7833V49.6161H331.101ZM333.576 49.6161H334.758V57.8862H333.576V49.6161ZM340.407 49.6161H343.892C344.766 49.6161 345.542 49.7894 346.219 50.136C346.897 50.4825 347.42 50.9708 347.791 51.6009C348.169 52.2232 348.358 52.9399 348.358 53.7512C348.358 54.5624 348.169 55.2831 347.791 55.9132C347.42 56.5354 346.897 57.0198 346.219 57.3664C345.542 57.713 344.766 57.8862 343.892 57.8862H340.407V49.6161ZM343.821 56.8584C344.49 56.8584 345.077 56.7284 345.581 56.4685C346.093 56.2086 346.487 55.8463 346.763 55.3816C347.038 54.909 347.176 54.3655 347.176 53.7512C347.176 53.1368 347.038 52.5973 346.763 52.1326C346.487 51.66 346.093 51.2938 345.581 51.0339C345.077 50.7739 344.49 50.644 343.821 50.644H341.588V56.8584H343.821ZM350.167 49.6161H351.349V57.8862H350.167V49.6161ZM359.555 53.7039H360.689V56.9293C360.279 57.2679 359.803 57.5279 359.259 57.709C358.716 57.8902 358.149 57.9807 357.558 57.9807C356.723 57.9807 355.971 57.7996 355.301 57.4373C354.632 57.0671 354.104 56.563 353.718 55.925C353.34 55.2792 353.151 54.5546 353.151 53.7512C353.151 52.9478 353.34 52.2232 353.718 51.5773C354.104 50.9315 354.632 50.4274 355.301 50.0651C355.979 49.7028 356.739 49.5216 357.582 49.5216C358.243 49.5216 358.842 49.6319 359.377 49.8524C359.921 50.0651 360.382 50.3801 360.76 50.7976L360.027 51.5301C359.366 50.8921 358.566 50.5731 357.629 50.5731C356.999 50.5731 356.432 50.7109 355.928 50.9866C355.431 51.2544 355.042 51.6325 354.758 52.1208C354.474 52.6012 354.333 53.1447 354.333 53.7512C354.333 54.3498 354.474 54.8932 354.758 55.3816C355.042 55.862 355.431 56.2401 355.928 56.5158C356.432 56.7914 356.995 56.9293 357.617 56.9293C358.357 56.9293 359.003 56.752 359.555 56.3976V53.7039ZM362.951 49.6161H364.132V57.8862H362.951V49.6161ZM368.25 50.644H365.415V49.6161H372.256V50.644H369.42V57.8862H368.25V50.644ZM378.396 55.8187H374.001L373.092 57.8862H371.875L375.62 49.6161H376.789L380.546 57.8862H379.306L378.396 55.8187ZM377.983 54.8735L376.199 50.8212L374.415 54.8735H377.983ZM381.78 49.6161H382.962V56.8584H387.439V57.8862H381.78V49.6161ZM388.795 49.6161H389.976V57.8862H388.795V49.6161Z" fill="#646D84"/>
<path d="M357.942 4.62218H356.218V3.36325H361.245V4.62218H359.529V8.97632H357.942V4.62218ZM366.905 8.97632L366.889 6.00139L365.445 8.42303H364.74L363.304 6.08158V8.97632H361.837V3.36325H363.144L365.116 6.60279L367.041 3.36325H368.348L368.364 8.97632H366.905Z" fill="#646D84"/>
</svg>
